<svg xmlns="http://www.w3.org/2000/svg" viewBox="0 0 750 500"><g id="freepik--background-simple--inject-113"><path d="M609.38,91.64a163.45,163.45,0,0,0-31.33-23.51c-37-21.71-78.32-36.88-121-41.84-4.12-.47-8.26-.86-12.4-1.14-96.15-6.59-161,50.49-201,105.36S146,151.73,87,231.49,60,392.46,146.68,434.17s198.14,16.09,269.53-1.47,141.32,43.17,209.07-43.17c50.85-64.81,50.81-162.35,22.85-236.64C638.8,128.11,626.46,108.15,609.38,91.64Z" style="fill:#DCE3F3"></path><path d="M609.38,91.64a163.45,163.45,0,0,0-31.33-23.51c-37-21.71-78.32-36.88-121-41.84-4.12-.47-8.26-.86-12.4-1.14-96.15-6.59-161,50.49-201,105.36S146,151.73,87,231.49,60,392.46,146.68,434.17s198.14,16.09,269.53-1.47,141.32,43.17,209.07-43.17c50.85-64.81,50.81-162.35,22.85-236.64C638.8,128.11,626.46,108.15,609.38,91.64Z" style="fill:#fff;opacity:0.7000000000000001"></path></g><g id="freepik--Clouds--inject-113"><path d="M637.69,130.27S629.23,88.88,601,91.7c-12.83,1.28-21.42,7.72-28.86,17.71-9.55,12.82-13,5.37-26.64,9.57-12.23,3.77-10.35,14.12-17.88,16s-13.17-6.59-23.52-4.71-16,12.23-16,12.23H676.27a18.24,18.24,0,0,0-13.17-15C650.86,123.69,645.22,133.1,637.69,130.27Z" style="fill:none;stroke:#000;stroke-miterlimit:10;opacity:0.30000000000000004"></path><path d="M193.16,127.53S187.81,101.4,170,103.18c-8.11.82-13.52,4.87-18.22,11.18-6,8.09-8.18,3.39-16.81,6-7.72,2.38-6.53,8.91-11.29,10.1s-8.31-4.16-14.84-3-10.1,7.72-10.1,7.72H217.5a11.5,11.5,0,0,0-8.31-9.5C201.47,123.37,197.91,129.31,193.16,127.53Z" style="fill:none;stroke:#000;stroke-miterlimit:10;opacity:0.30000000000000004"></path><path d="M494,393.28s-4.7-22.95-20.35-21.38c-7.11.71-11.87,4.28-16,9.82-5.3,7.1-7.19,3-14.77,5.3-6.78,2.09-5.74,7.83-9.91,8.87s-7.3-3.65-13-2.61-8.86,6.78-8.86,6.78h104.3a10.1,10.1,0,0,0-7.3-8.34C501.28,389.63,498.15,394.85,494,393.28Z" style="fill:none;stroke:#000;stroke-miterlimit:10;opacity:0.30000000000000004"></path><path d="M244.93,353s-4.7-22.94-20.35-21.38c-7.11.71-11.87,4.28-16,9.82-5.29,7.1-7.18,3-14.76,5.3-6.78,2.09-5.74,7.83-9.91,8.87s-7.3-3.65-13-2.61-8.86,6.78-8.86,6.78h104.3a10.1,10.1,0,0,0-7.3-8.34C252.23,349.3,249.1,354.52,244.93,353Z" style="fill:none;stroke:#000;stroke-miterlimit:10;opacity:0.30000000000000004"></path></g><g id="freepik--Arrow--inject-113"><polygon points="593.46 160.51 614.02 175.74 470.09 263.32 444.2 312.06 278.94 372.98 106.88 486.5 208.05 486.5 316.26 404.96 480.75 344.8 509.69 291.49 648.29 196.3 677.23 218.39 709.98 138.42 709.98 129.24 593.46 160.51" style="fill:#263238;stroke:#263238;stroke-linecap:round;stroke-linejoin:round"></polygon><polygon points="593.46 151.32 614.02 166.55 470.09 254.13 444.2 302.87 278.94 363.79 96.69 486.5 197.81 486.5 316.26 395.78 480.75 335.62 509.69 282.31 648.29 187.12 677.23 209.2 709.98 129.24 593.46 151.32" style="fill:#fff;stroke:#263238;stroke-linecap:round;stroke-linejoin:round"></polygon><line x1="470.53" y1="325.94" x2="473.9" y2="328.76" style="fill:none;stroke:#263238;stroke-linecap:round;stroke-linejoin:round"></line><line x1="450.29" y1="308.96" x2="466.34" y2="322.43" style="fill:none;stroke:#263238;stroke-linecap:round;stroke-linejoin:round"></line><line x1="476.18" y1="256.42" x2="486.84" y2="264.03" style="fill:none;stroke:#263238;stroke-linecap:round;stroke-linejoin:round"></line><line x1="310.93" y1="392.73" x2="280.34" y2="371.24" style="fill:none;stroke:#263238;stroke-linecap:round;stroke-linejoin:round"></line><polygon points="593.46 160.51 593.46 151.32 614.02 166.55 607.25 170.75 593.46 160.51" style="fill:#fff;stroke:#263238;stroke-linecap:round;stroke-linejoin:round"></polygon><polygon points="677.23 218.39 677.23 209.2 648.29 187.12 648.29 196.3 677.23 218.39" style="fill:#fff;stroke:#263238;stroke-miterlimit:10"></polygon></g></svg>
